<svg xmlns="http://www.w3.org/2000/svg" viewBox="0 0 489.3 489.3"><path fill="white" d="M354.6 173.35c-4.8-4.8-12.5-4.8-17.3 0l-62.6 62.6c-2.3 2.3-3.6 5.4-3.6 8.7 0 3.2 1.3 6.4 3.6 8.7l62.6 62.6c2.4 2.4 5.5 3.6 8.7 3.6s6.3-1.2 8.7-3.6c4.8-4.8 4.8-12.5 0-17.3l-41.7-41.7h164c6.8 0 12.3-5.5 12.3-12.3s-5.5-12.3-12.3-12.3H313l41.6-41.7c4.8-4.7 4.8-12.5 0-17.3zM0 244.65c0 6.8 5.5 12.3 12.2 12.3h164l-41.6 41.7c-4.8 4.8-4.8 12.5 0 17.3 2.4 2.4 5.5 3.6 8.7 3.6s6.3-1.2 8.7-3.6l62.6-62.6c2.3-2.3 3.6-5.4 3.6-8.7 0-3.2-1.3-6.4-3.6-8.7l-62.6-62.6c-4.8-4.8-12.5-4.8-17.3 0s-4.8 12.5 0 17.3l41.7 41.7h-164c-6.9 0-12.4 5.5-12.4 12.3zM173.3 151.95l62.6 62.6c2.4 2.4 5.5 3.6 8.7 3.6 3.1 0 6.3-1.2 8.7-3.6l62.6-62.6c4.8-4.8 4.8-12.5 0-17.3s-12.5-4.8-17.3 0l-41.7 41.7v-164c0-6.8-5.5-12.3-12.3-12.3s-12.2 5.5-12.2 12.3v164l-41.8-41.7c-4.8-4.8-12.5-4.8-17.3 0s-4.8 12.5 0 17.3zM235.9 274.75l-62.6 62.6c-4.8 4.8-4.8 12.5 0 17.3s12.5 4.8 17.3 0l41.7-41.7v164c0 6.8 5.5 12.3 12.2 12.3s12.3-5.5 12.3-12.3v-164l41.8 41.7c2.4 2.4 5.5 3.6 8.7 3.6s6.3-1.2 8.7-3.6c4.8-4.8 4.8-12.5 0-17.3l-62.6-62.6c-4.9-4.8-12.7-4.8-17.5 0z"/></svg>
