<svg xmlns="http://www.w3.org/2000/svg" viewBox="0 0 488 488"><path fill="white" d="M305.4 244c0-33.9-27.6-61.4-61.4-61.4s-61.4 27.5-61.4 61.4 27.6 61.4 61.4 61.4 61.4-27.5 61.4-61.4zM244 281.4c-20.6 0-37.4-16.8-37.4-37.4s16.8-37.4 37.4-37.4 37.4 16.8 37.4 37.4-16.8 37.4-37.4 37.4zM155.1 232c-6.6 0-12 5.4-12 12s5.4 12 12 12 12-5.4 12-12-5.4-12-12-12zM103.8 244c0 6.6 5.4 12 12 12s12-5.4 12-12-5.4-12-12-12-12 5.4-12 12zM88.5 244c0-24.4-19.9-44.3-44.3-44.3S0 219.6 0 244s19.9 44.3 44.3 44.3 44.2-19.9 44.2-44.3zm-44.2 20.3c-11.2 0-20.3-9.1-20.3-20.3s9.1-20.3 20.3-20.3 20.3 9.1 20.3 20.3-9.2 20.3-20.3 20.3z"/><circle cx="372.2" cy="244" r="12"/><path fill="white" d="M332.9 256c6.6 0 12-5.4 12-12s-5.4-12-12-12-12 5.4-12 12 5.4 12 12 12zM443.7 199.7c-24.4 0-44.3 19.9-44.3 44.3s19.9 44.3 44.3 44.3S488 268.4 488 244s-19.9-44.3-44.3-44.3zm0 64.6c-11.2 0-20.3-9.1-20.3-20.3s9.1-20.3 20.3-20.3S464 232.8 464 244c0 11.2-9.1 20.3-20.3 20.3zM244 320.9c-6.6 0-12 5.4-12 12s5.4 12 12 12 12-5.4 12-12-5.4-12-12-12zM244 360.2c-6.6 0-12 5.4-12 12s5.4 12 12 12 12-5.4 12-12-5.4-12-12-12zM244 399.5c-24.4 0-44.3 19.9-44.3 44.3S219.6 488 244 488s44.3-19.9 44.3-44.3-19.9-44.2-44.3-44.2zm0 64.5c-11.2 0-20.3-9.1-20.3-20.3s9.1-20.3 20.3-20.3c11.2 0 20.3 9.1 20.3 20.3S255.2 464 244 464zM244 167.1c6.6 0 12-5.4 12-12s-5.4-12-12-12-12 5.4-12 12 5.4 12 12 12z"/><circle cx="244" cy="115.8" r="12"/><path fill="white" d="M244 88.5c24.4 0 44.3-19.9 44.3-44.3S268.4 0 244 0s-44.3 19.9-44.3 44.3 19.9 44.2 44.3 44.2zm0-64.5c11.2 0 20.3 9.1 20.3 20.3s-9.1 20.3-20.3 20.3-20.3-9.1-20.3-20.3S232.8 24 244 24zM172.7 298.4c-4.7 4.7-4.7 12.3 0 17s12.3 4.7 17 0 4.7-12.3 0-17c-4.8-4.7-12.4-4.7-17 0z"/><circle cx="153.4" cy="334.6" r="12"/><path fill="white" d="M71.5 353.9c-17.3 17.3-17.3 45.3 0 62.6s45.3 17.3 62.6 0 17.3-45.3 0-62.6c-17.3-17.2-45.4-17.2-62.6 0zm45.6 45.7c-7.9 7.9-20.7 7.9-28.6 0s-7.9-20.7 0-28.6 20.7-7.9 28.6 0c7.9 7.8 7.9 20.7 0 28.6z"/><circle cx="334.6" cy="153.4" r="12"/><circle cx="306.9" cy="181.1" r="12"/><path fill="white" d="M416.5 134.1c17.3-17.3 17.3-45.3 0-62.6s-45.3-17.3-62.6 0-17.3 45.3 0 62.6 45.4 17.2 62.6 0zm-45.6-45.7c7.9-7.9 20.7-7.9 28.6 0s7.9 20.7 0 28.6-20.7 7.9-28.6 0c-7.9-7.8-7.9-20.7 0-28.6z"/><circle cx="334.6" cy="334.6" r="12"/><path fill="white" d="M298.4 298.4c-4.7 4.7-4.7 12.3 0 17s12.3 4.7 17 0 4.7-12.3 0-17c-4.7-4.7-12.3-4.7-17 0zM353.9 353.9c-17.3 17.3-17.3 45.3 0 62.6s45.3 17.3 62.6 0 17.3-45.3 0-62.6c-17.2-17.2-45.3-17.2-62.6 0zm45.7 45.7c-7.9 7.9-20.7 7.9-28.6 0s-7.9-20.7 0-28.6 20.7-7.9 28.6 0c7.9 7.8 7.9 20.7 0 28.6z"/><circle cx="181.1" cy="181.1" r="12"/><circle cx="153.4" cy="153.4" r="12"/><path fill="white" d="M134.1 134.1c17.3-17.3 17.3-45.3 0-62.6s-45.3-17.3-62.6 0-17.3 45.3 0 62.6c17.2 17.2 45.3 17.2 62.6 0zM88.4 88.4c7.9-7.9 20.7-7.9 28.6 0s7.9 20.7 0 28.6-20.7 7.9-28.6 0c-7.9-7.8-7.9-20.7 0-28.6z"/></svg>
