<svg width='200' height='200' fill="#FFFFFF" xmlns="http://www.w3.org/2000/svg" xmlns:xlink="http://www.w3.org/1999/xlink" version="1.1" x="0px" y="0px" viewBox="0 0 100 100" enable-background="new 0 0 100 100" xml:space="preserve"><path d="M84,59.981V41.238c3.491-1.26,5.99-4.592,5.99-8.52c0-5.01-4.059-9.067-9.067-9.067c-2.116,0-4.061,0.732-5.604,1.949  l-16.991-9.574c0.052-0.394,0.088-0.792,0.088-1.2c0-5.01-4.059-9.067-9.067-9.067c-5.003,0-9.067,4.058-9.067,9.067  c0,0.462,0.046,0.913,0.112,1.356L24.11,25.358c-1.488-1.07-3.309-1.707-5.283-1.707c-5.003,0-9.067,4.057-9.067,9.067  c0,3.639,2.149,6.766,5.24,8.209v19.363c-3.091,1.444-5.24,4.572-5.24,8.211c0,5.01,4.064,9.065,9.067,9.065  c2.387,0,4.551-0.929,6.17-2.435l15.421,8.689c-0.083,0.495-0.137,1-0.137,1.52c0,5.01,4.064,9.065,9.067,9.065  c5.009,0,9.067-4.056,9.067-9.065c0-0.465-0.046-0.917-0.113-1.362l16.169-9.111c1.645,1.665,3.928,2.699,6.451,2.699  c5.009,0,9.067-4.056,9.067-9.065C89.99,64.575,87.491,61.242,84,59.981z M43.329,78.575l-15.541-8.757  c0.062-0.431,0.106-0.868,0.106-1.316c0-4.258-2.938-7.819-6.895-8.795V41.511c1.448-0.356,2.756-1.058,3.837-2.016l16.152,9.509  c-0.081,0.488-0.134,0.986-0.134,1.498c0,3.984,2.575,7.357,6.145,8.574v17.517C45.618,76.964,44.368,77.65,43.329,78.575z   M55.704,43.517c-1.569-1.3-3.584-2.082-5.781-2.082c-2.319,0-4.43,0.879-6.034,2.314l-16.133-9.498  c0.085-0.499,0.139-1.009,0.139-1.533c0-0.838-0.123-1.646-0.335-2.417l15.65-8.818c1.616,1.491,3.769,2.409,6.14,2.409  c2.429,0,4.63-0.959,6.257-2.513l16.491,9.292c-0.152,0.659-0.241,1.342-0.241,2.048c0,0.301,0.017,0.598,0.045,0.891L55.704,43.517  z M55.485,78.68c-0.729-0.673-1.565-1.229-2.485-1.635V59.021c3.491-1.261,5.99-4.592,5.99-8.52c0-0.633-0.065-1.25-0.189-1.847  l15.662-9.581c0.979,0.995,2.188,1.758,3.537,2.219v18.632c-3.569,1.218-6.145,4.593-6.145,8.576c0,0.313,0.016,0.622,0.047,0.927  L55.485,78.68z"/></svg>
